<svg width="34" height="31" viewBox="0 0 34 31" fill="none" xmlns="http://www.w3.org/2000/svg">
<path d="M32.3522 19.4521V7.80752C32.3522 6.5442 31.3243 5.51627 30.0609 5.51627H25.345V2.29125C25.345 1.02793 24.3171 0 23.0538 0C23.0145 0 22.9753 0.00784676 22.9439 0.0156935L2.22848 5.52412C0.996538 5.55551 0 6.56774 0 7.80752V27.1655C0 28.4288 1.02793 29.4567 2.29125 29.4567H23.0067C24.1994 30.3434 25.6197 30.8142 27.1105 30.8142C30.9084 30.8142 34 27.7226 34 23.9248C34 22.2769 33.4193 20.6997 32.3522 19.4521ZM23.1087 0.863143C23.8698 0.89453 24.4819 1.52227 24.4819 2.29125V5.52412H5.59474L23.1087 0.863143ZM0.863143 27.1655V7.80752C0.863143 7.02285 1.49873 6.37942 2.29125 6.37942H24.9135H30.0688C30.8535 6.37942 31.4969 7.015 31.4969 7.80752V18.5968C30.2649 17.5924 28.7191 17.0275 27.1105 17.0275C23.3127 17.0275 20.2211 20.1191 20.2211 23.9169C20.2211 25.6746 20.8724 27.3224 22.0415 28.5857H2.29125C1.49873 28.5857 0.863143 27.9502 0.863143 27.1655ZM27.1105 29.9511C25.7609 29.9511 24.4819 29.5117 23.4147 28.6799C21.9317 27.5264 21.0842 25.7923 21.0842 23.9169C21.0842 20.5899 23.7914 17.8906 27.1105 17.8906C28.8211 17.8906 30.4611 18.6204 31.5989 19.8994C32.5876 21.0058 33.1369 22.4339 33.1369 23.9169C33.1369 27.2439 30.4376 29.9511 27.1105 29.9511Z" fill="black"/>
<path d="M29.9592 23.2105H27.7307V20.982C27.7307 20.6054 27.4247 20.2915 27.0402 20.2915C26.6635 20.2915 26.3497 20.5975 26.3497 20.982V23.2105H24.1212C23.7445 23.2105 23.4307 23.5165 23.4307 23.901C23.4307 24.2855 23.7367 24.5915 24.1212 24.5915H26.3497V26.82C26.3497 27.1967 26.6557 27.5105 27.0402 27.5105C27.4168 27.5105 27.7307 27.2045 27.7307 26.82V24.5915H29.9592C30.3358 24.5915 30.6497 24.2855 30.6497 23.901C30.6497 23.5165 30.3358 23.2105 29.9592 23.2105Z" fill="black"/>
</svg>
