<svg width="70" height="70" viewBox="0 0 70 70" fill="none" xmlns="http://www.w3.org/2000/svg">
<path d="M56.808 60.9677L54.1943 53.1254C53.2809 50.3875 50.9506 48.3666 48.1099 47.8495L40.5646 46.4766V45.8917C41.8777 45.1296 43.0203 44.1101 43.9303 42.9032H46.2098C48.0772 42.9032 49.5969 41.3835 49.5969 39.5161V25.9677C49.5969 17.8748 43.0123 11.2903 34.9194 11.2903C26.8265 11.2903 20.242 17.8748 20.242 25.9677V33.8709C20.242 36.0477 21.7899 37.8688 23.8425 38.2933C24.4759 41.5382 26.5036 44.284 29.2743 45.8917V46.4766L21.7278 47.8495C18.8883 48.3666 16.5569 50.3875 15.6446 53.1254L15.193 54.4814L11.3475 50.6359C10.9072 50.1956 10.9072 49.4787 11.3475 49.0383L15.8072 44.5798L7.43655 36.2092L2.39655 41.2492C0.903967 42.7417 0.0820312 44.7266 0.0820312 46.8379C0.0820312 48.9492 0.903967 50.9329 2.39655 52.4254L17.6554 67.6843C19.148 69.1769 21.1328 70 23.2441 70C25.3554 70 27.3391 69.1769 28.7967 67.7182L34.2962 62.6793L32.5812 60.9677H56.808ZM47.3388 39.5161C47.3388 40.1393 46.8319 40.6451 46.2098 40.6451H45.2603C45.5877 39.8988 45.8361 39.1119 45.9964 38.2933C46.4796 38.1929 46.9244 38.0009 47.3388 37.7593V39.5161ZM46.2098 35.8151V31.9267C46.8815 32.3185 47.3388 33.0388 47.3388 33.8709C47.3388 34.703 46.8815 35.4233 46.2098 35.8151ZM23.6291 35.8151C22.9573 35.4233 22.5001 34.703 22.5001 33.8709C22.5001 33.0388 22.9573 32.3185 23.6291 31.9267V35.8151ZM23.6291 28.2258V29.5151C23.2272 29.6201 22.8501 29.7782 22.5001 29.9825V25.9677C22.5001 19.1201 28.0719 13.5483 34.9194 13.5483C41.767 13.5483 47.3388 19.1201 47.3388 25.9677V29.9825C46.9888 29.7782 46.6117 29.619 46.2098 29.5151V28.2258H45.0807C41.7422 28.2258 38.6035 26.9251 36.2415 24.5643L34.9194 23.2422L33.5974 24.5643C31.2354 26.9251 28.0967 28.2258 24.7582 28.2258H23.6291ZM25.8872 36.129V30.4409C29.2777 30.1858 32.439 28.7869 34.9194 26.4283C37.3999 28.7869 40.5612 30.1869 43.9517 30.4409V36.129C43.9517 37.7751 43.5023 39.3151 42.7301 40.6451H34.9194V42.9032H40.874C39.282 44.3043 37.2012 45.1613 34.9194 45.1613C29.9393 45.1613 25.8872 41.1092 25.8872 36.129ZM38.3065 46.8988V46.9519L34.9194 50.339L31.5323 46.9519V46.8988C32.6027 47.2353 33.7396 47.4193 34.9194 47.4193C36.0993 47.4193 37.2362 47.2353 38.3065 46.8988ZM17.7853 53.839C18.4367 51.8835 20.102 50.4395 22.1309 50.0692L30.0228 48.6353L34.9194 53.5319L39.8149 48.6364L47.7057 50.0703C49.7346 50.4406 51.3999 51.8835 52.0514 53.8401L53.6761 58.7096H30.3232L25.9256 54.3121L21.0391 58.7322C20.6135 59.1601 19.8694 59.1601 19.4427 58.7322L16.9769 56.2664L17.7853 53.839ZM7.43542 39.4021L12.6132 44.5798L11.387 45.8059L6.20929 40.6282L7.43542 39.4021ZM27.233 66.0901C26.1672 67.1537 24.7491 67.7419 23.2419 67.7419C21.7346 67.7419 20.3165 67.1537 19.2496 66.0879L3.99074 50.8301C2.92493 49.7643 2.33784 48.3463 2.33784 46.839C2.33784 45.3306 2.92493 43.9125 3.99074 42.8467L4.61171 42.2258L9.78945 47.4035L9.7488 47.4442C8.42896 48.7651 8.42896 50.9137 9.7488 52.2346L17.8451 60.3309C18.4853 60.97 19.3354 61.3233 20.2409 61.3233C21.1464 61.3233 21.9965 60.9711 22.5949 60.3704L22.6796 60.2948L27.8811 65.4963L27.233 66.0901ZM29.5475 63.9675L24.3574 58.7774L25.8488 57.4293L31.0299 62.6104L29.5475 63.9675Z" fill="black"/>
<path d="M66.5314 0H50.725C48.8576 0 47.3379 1.51968 47.3379 3.3871V12.4194C47.3379 14.2868 48.8576 15.8065 50.725 15.8065H53.7406L52.5732 22.6156L63.4684 15.8065H66.5314C68.3989 15.8065 69.9185 14.2868 69.9185 12.4194V3.3871C69.9185 1.51968 68.3989 0 66.5314 0ZM67.6605 12.4194C67.6605 13.0415 67.1535 13.5484 66.5314 13.5484H62.8203L55.6498 18.0295L56.4187 13.5484H50.725C50.1029 13.5484 49.596 13.0415 49.596 12.4194V3.3871C49.596 2.765 50.1029 2.25806 50.725 2.25806H66.5314C67.1535 2.25806 67.6605 2.765 67.6605 3.3871V12.4194Z" fill="black"/>
<path d="M65.4019 4.51611H51.8535V6.77418H65.4019V4.51611Z" fill="black"/>
<path d="M60.8858 9.03223H51.8535V11.2903H60.8858V9.03223Z" fill="black"/>
<path d="M65.4026 9.03223H63.1445V11.2903H65.4026V9.03223Z" fill="black"/>
<path d="M34.9206 3.38721C20.1686 3.38721 7.46139 13.5914 4.15784 27.8251L2.01832 24.2585L0.0820312 25.4203L4.05058 32.033L10.6633 28.0645L9.50155 26.1282L6.44187 27.964C9.64155 14.9429 21.3507 5.64527 34.9206 5.64527C37.8866 5.64527 40.813 6.08559 43.6186 6.95495L44.287 4.7985C41.2646 3.8614 38.1135 3.38721 34.9206 3.38721Z" fill="black"/>
<path d="M69.3722 24.9991L62.7595 21.0305L58.7921 27.6444L60.7284 28.8062L62.7042 25.5128C63.744 28.5555 64.2758 31.7383 64.2758 35C64.2758 41.7144 61.95 48.2786 57.7285 53.4823L59.4819 54.9049C64.0296 49.3004 66.5338 42.2304 66.5338 35C66.5338 31.5463 65.9772 28.1739 64.8922 24.9449L68.2105 26.9354L69.3722 24.9991Z" fill="black"/>
</svg>
