<svg width="72" height="70" viewBox="0 0 72 70" fill="none" xmlns="http://www.w3.org/2000/svg">
<path d="M71.8612 38.3683C71.2147 31.7827 68.3098 25.574 63.6812 20.8859C59.7256 16.8798 54.8841 14.3054 49.7897 13.1607V9.5418C51.8705 9.01752 53.4171 7.10996 53.4171 4.84262C53.4171 2.17234 51.2722 0 48.6357 0H38.5106C35.8741 0 33.7293 2.17234 33.7293 4.84262C33.7293 7.10981 35.2759 9.01738 37.3565 9.5418V13.1708C32.2777 14.3203 27.4522 16.8912 23.5079 20.8861C22.6448 21.7603 21.8488 22.6774 21.1202 23.6305C21.0849 23.6278 21.0496 23.6251 21.0136 23.6251H10.9924C10.2159 23.6251 9.58613 24.2628 9.58613 25.0494C9.58613 25.8361 10.2159 26.4737 10.9924 26.4737H19.2067C18.1756 28.222 17.3442 30.0581 16.7114 31.9482H1.40627C0.629728 31.9482 0 32.5858 0 33.3725C0 34.1591 0.629728 34.7968 1.40627 34.7968H15.9167C15.5115 36.5986 15.2789 38.4324 15.2188 40.2713H9.00014C8.22359 40.2713 7.59386 40.909 7.59386 41.6956C7.59386 42.4823 8.22359 43.1199 9.00014 43.1199H15.2637C15.3824 44.9635 15.675 46.7975 16.1417 48.5945H7.03136C6.25481 48.5945 5.62508 49.2322 5.62508 50.0188C5.62508 50.8054 6.25481 51.4431 7.03136 51.4431H17.0392C18.4188 55.1393 20.5747 58.6036 23.5079 61.5744C28.141 66.2669 34.2774 69.2098 40.7865 69.8611C41.7155 69.954 42.6452 70 43.5736 70C49.0611 70 54.4789 68.3915 59.076 65.3595C59.7269 64.9302 59.9109 64.0479 59.4871 63.3887C59.0632 62.7295 58.1921 62.5431 57.5412 62.9724C47.4784 69.6092 34.0017 68.1742 25.4967 59.5602C15.5175 49.4531 15.5175 33.0077 25.4967 22.9004C35.4757 12.7935 51.713 12.7935 61.6923 22.9004C70.186 31.5032 71.6106 45.141 65.0794 55.3279C64.6564 55.9876 64.8416 56.8698 65.4929 57.2981C66.1445 57.7265 67.0153 57.539 67.4382 56.8792C70.9277 51.4363 72.4985 44.8624 71.8612 38.3683ZM36.5418 4.84276C36.5418 3.7432 37.425 2.84874 38.5106 2.84874H48.6357C49.7214 2.84874 50.6045 3.7432 50.6045 4.84276C50.6045 5.94232 49.7214 6.83678 48.6357 6.83678H48.3835H38.7627H38.5106C37.425 6.83678 36.5418 5.94217 36.5418 4.84276ZM40.169 12.6811V9.68537H46.9772V12.676C44.7165 12.4036 42.4293 12.4054 40.169 12.6811Z" fill="black"/>
<path d="M62.687 59.1426C62.3158 59.1426 61.9544 59.295 61.6929 59.5599C61.43 59.8248 61.2808 60.1923 61.2808 60.5668C61.2808 60.9414 61.43 61.3089 61.6929 61.5738C61.9544 61.8401 62.3159 61.9911 62.687 61.9911C63.0569 61.9911 63.4183 61.8401 63.6812 61.5738C63.9428 61.3089 64.0933 60.9414 64.0933 60.5668C64.0933 60.1923 63.9429 59.8248 63.6812 59.5599C63.4183 59.295 63.0567 59.1426 62.687 59.1426Z" fill="black"/>
<path d="M43.4154 19.2559C31.3865 19.2559 21.6001 29.1675 21.6001 41.3508C21.6001 53.5341 31.3865 63.4458 43.4154 63.4458C55.4444 63.4458 65.2308 53.5341 65.2308 41.3508C65.2308 29.1675 55.4444 19.2559 43.4154 19.2559ZM43.4154 60.5972C32.9372 60.5972 24.4126 51.9633 24.4126 41.3508C24.4126 30.7384 32.9372 22.1045 43.4154 22.1045C53.8937 22.1045 62.4182 30.7384 62.4182 41.3508C62.4182 51.9633 53.8937 60.5972 43.4154 60.5972Z" fill="black"/>
<path d="M52.4898 30.2062L45.5245 37.2606C44.9421 36.9689 44.2869 36.8041 43.5943 36.8041C42.9016 36.8041 42.2465 36.9689 41.664 37.2606L38.5468 34.1034C37.9975 33.5472 37.1073 33.5472 36.5579 34.1034C36.0087 34.6596 36.0087 35.5614 36.5579 36.1176L39.6751 39.2749C39.387 39.8648 39.2244 40.5284 39.2244 41.2299C39.2244 43.6703 41.1846 45.6558 43.5943 45.6558C46.0039 45.6558 47.9641 43.6703 47.9641 41.2299C47.9641 40.5284 47.8014 39.8648 47.5134 39.2749L54.2742 32.4274L54.4786 32.2205C55.0277 31.6643 55.0277 30.7624 54.4786 30.2062C53.9294 29.65 53.0392 29.65 52.4898 30.2062ZM43.5943 42.8073C42.7356 42.8073 42.037 42.0997 42.037 41.23C42.037 40.3603 42.7356 39.6527 43.5943 39.6527C44.453 39.6527 45.1516 40.3603 45.1516 41.23C45.1516 42.0997 44.453 42.8073 43.5943 42.8073Z" fill="black"/>
<path d="M58.6301 39.8223H57.3272C56.5506 39.8223 55.9209 40.4599 55.9209 41.2465C55.9209 42.0332 56.5506 42.6708 57.3272 42.6708H58.6301C59.4066 42.6708 60.0363 42.0332 60.0363 41.2465C60.0363 40.4599 59.4066 39.8223 58.6301 39.8223Z" fill="black"/>
<path d="M29.8613 39.7871H28.5586C27.7821 39.7871 27.1523 40.4247 27.1523 41.2114C27.1523 41.998 27.7821 42.6356 28.5586 42.6356H29.8613C30.6379 42.6356 31.2676 41.998 31.2676 41.2114C31.2676 40.4247 30.6379 39.7871 29.8613 39.7871Z" fill="black"/>
<path d="M43.6118 28.7442C44.3883 28.7442 45.0181 28.1066 45.0181 27.3199V26.0005C45.0181 25.2138 44.3883 24.5762 43.6118 24.5762C42.8353 24.5762 42.2056 25.2138 42.2056 26.0005V27.3199C42.2056 28.1066 42.8353 28.7442 43.6118 28.7442Z" fill="black"/>
<path d="M43.5781 53.7148C42.8016 53.7148 42.1719 54.3525 42.1719 55.1391V56.4586C42.1719 57.2452 42.8016 57.8828 43.5781 57.8828C44.3547 57.8828 44.9844 57.2452 44.9844 56.4586V55.1391C44.9844 54.3525 44.3547 53.7148 43.5781 53.7148Z" fill="black"/>
<path d="M1.40625 48.593C1.03641 48.593 0.673593 48.7454 0.412031 49.0103C0.150469 49.2753 0 49.6427 0 50.0173C0 50.3933 0.150328 50.7594 0.412031 51.0243C0.673734 51.2892 1.03641 51.4416 1.40625 51.4416C1.77609 51.4416 2.1389 51.2892 2.40033 51.0243C2.66189 50.7594 2.8125 50.3919 2.8125 50.0173C2.8125 49.6427 2.66203 49.2753 2.40033 49.0103C2.1389 48.7454 1.77609 48.593 1.40625 48.593Z" fill="black"/>
</svg>
