<svg width="22" height="22" viewBox="0 0 22 22" fill="none" xmlns="http://www.w3.org/2000/svg">
<path d="M21.3232 2.53809H13.5386V5.07655H16.077V6.76886H13.5386V8.46116H16.077V10.1535H13.5386V11.8458H16.077V13.5381H13.5386V15.2304H16.077V16.9227H13.5386V19.4612H21.3232C21.7463 19.4612 22.0001 19.1227 22.0001 18.6996V3.29962C22.0001 2.87655 21.6617 2.53809 21.3232 2.53809ZM20.3078 16.9227H16.9232V15.2304H20.3078V16.9227ZM20.3078 13.5381H16.9232V11.8458H20.3078V13.5381ZM20.3078 10.1535H16.9232V8.46116H20.3078V10.1535ZM20.3078 6.76886H16.9232V5.07655H20.3078V6.76886Z" fill="#1BB81D"/>
<path d="M0 2.45385V19.5462L12.6923 22V0L0 2.45385ZM8.03846 15.3154L6.6 12.5231C6.51538 12.4385 6.51538 12.2692 6.43077 11.9308C6.43077 12.1 6.34615 12.2692 6.26154 12.5231L4.73846 15.3154H2.36923L5.07692 11L2.62308 6.76923H4.99231L6.17692 9.30769C6.26154 9.47692 6.34615 9.73077 6.43077 10.0692C6.51538 9.81538 6.6 9.64615 6.76923 9.30769L8.12308 6.76923H10.2385L7.7 11L10.3231 15.3154H8.03846Z" fill="#1BB81D"/>
</svg>
