<svg width="27" height="19" viewBox="0 0 27 19" fill="none" xmlns="http://www.w3.org/2000/svg">
<path d="M7.47925 11.1983C7.47925 11.1983 6.49276 7.55978 9.04065 5.17447C9.04065 5.17447 11.0539 2.9916 15.1229 3.59783L16.8074 2.1026C16.8074 2.1026 11.5885 0.20249 5.99952 3.84097C5.99952 3.84097 2.21906 6.34731 0 9.62162C0 9.62162 1.5614 11.8045 4.52087 14.1491L7.47925 11.1983Z" fill="#414042"/>
<path d="M21.0406 3.92125L23.1867 1.68696L21.2878 0L3.78027 17.1813L5.79354 19L8.40349 16.5344C14.0949 18.8383 18.4927 16.5344 18.4927 16.5344C23.5885 14.4725 26.9998 9.66227 26.9998 9.66227C25.3143 6.79176 21.0406 3.92125 21.0406 3.92125ZM18.0855 13.7142C18.0855 13.7142 14.807 17.4255 10.175 14.6867L11.9183 12.9205C11.9183 12.9205 14.4422 13.9445 16.2377 12.0754C16.2377 12.0754 17.8971 10.3863 16.8072 8.05671L18.7094 6.23908C18.7105 6.24015 21.4141 9.92683 18.0855 13.7142Z" fill="#414042"/>
</svg>
