<svg width="52" height="65" viewBox="0 0 52 65" fill="none" xmlns="http://www.w3.org/2000/svg">
<path d="M25.9994 34.9985C22.169 34.9985 19.0527 37.8818 19.0527 41.4259C19.0527 43.1836 19.8423 44.8831 21.2208 46.0925V51.8956C21.2208 54.3336 23.3646 56.3171 25.9995 56.3171C28.6345 56.3171 30.7782 54.3336 30.7782 51.8956V46.0925C32.1561 44.8838 32.9462 43.184 32.9462 41.4259C32.9459 37.8818 29.8295 34.9985 25.9994 34.9985ZM28.4573 43.8388C27.7941 44.4171 27.4137 45.2253 27.4137 46.0564V51.8956C27.4137 52.6173 26.7794 53.2042 25.9994 53.2042C25.2195 53.2042 24.585 52.6173 24.585 51.8956V46.0564C24.585 45.2254 24.2047 44.4173 23.5419 43.8392C22.8163 43.2064 22.4168 42.3493 22.4168 41.4259C22.4168 39.5984 24.0239 38.1114 25.9991 38.1114C27.9743 38.1114 29.5814 39.5984 29.5814 41.4259C29.5817 42.3493 29.1822 43.2064 28.4573 43.8388Z" fill="black"/>
<path d="M46.3689 26.5488H41.3228V14.1768C41.3228 6.35967 34.4492 0 26.0007 0C17.5521 0 10.6785 6.35967 10.6785 14.1768V26.5488H5.63237C2.84973 26.5488 0.585938 28.6435 0.585938 31.218V60.0975C0.585938 62.6721 2.84973 64.7667 5.63237 64.7667H46.3689C49.1515 64.7667 51.4153 62.6721 51.4153 60.0975V31.2181C51.4153 28.6435 49.1515 26.5488 46.3689 26.5488ZM14.0426 14.1768C14.0426 8.07624 19.4069 3.11285 26.0006 3.11285C32.5942 3.11285 37.9585 8.07624 37.9585 14.1768V26.5488H14.0426V14.1768ZM48.051 60.0976C48.051 60.9558 47.2964 61.6541 46.3689 61.6541H5.63237C4.70487 61.6541 3.95018 60.9559 3.95018 60.0976V31.2181C3.95018 30.3599 4.70487 29.6617 5.63237 29.6617H46.3689C47.2964 29.6617 48.051 30.3598 48.051 31.2181V60.0976Z" fill="black"/>
</svg>
