<svg width="369" height="369" viewBox="0 0 369 369" fill="none" xmlns="http://www.w3.org/2000/svg">
<path d="M225.426 364.051C217.483 366.15 209.312 367.285 201.142 368.023C175.383 370.235 150.021 367.909 125.737 359.058C59.5238 334.888 17.3674 288.476 3.86373 219.199C-9.1293 152.588 10.8993 95.0556 60.1479 48.4168C88.1766 21.8634 122.049 6.37388 160.404 1.60788C215.554 -5.20069 264.519 9.60796 306.448 46.1473C338.392 74.0057 357.966 109.24 365.91 150.829C369.711 170.744 369.881 190.829 367.101 210.915C367.044 211.198 366.931 211.425 366.817 211.709C363.413 206.262 359.158 201.496 355.186 196.447C343.668 181.695 331.98 167.113 320.406 152.418C307.696 136.247 295.044 120.02 282.391 103.793C282.051 103.396 281.767 102.432 280.916 103.226C280.405 101.921 279.781 100.673 279.327 99.3109C278.93 98.1194 278.306 97.552 276.944 97.3818C266.334 96.0201 259.412 90.0059 255.894 80.0767C255.27 78.2611 254.419 77.637 252.49 77.637C207.61 77.6937 162.674 77.6937 117.794 77.637C115.751 77.637 115.127 78.3178 114.617 80.1902C112.971 86.3179 109.226 90.9137 103.78 94.1477C100.262 96.247 96.4603 97.8357 92.4319 98.2896C89.7085 98.5733 88.8574 99.8783 88.2333 102.205C83.8077 118.034 80.4602 134.091 78.985 150.489C77.3396 168.872 78.1907 187.085 82.3326 205.128C89.5383 236.447 105.595 262.49 129.595 283.71C145.028 297.384 162.333 307.994 181.511 315.597C183.099 316.221 184.631 317.015 186.39 316.051C186.447 316.788 186.958 317.185 187.355 317.696C192.064 323.313 196.773 328.93 201.483 334.547C206.702 340.732 211.979 346.859 217.086 353.1C219.809 356.845 223.213 359.966 225.426 364.051Z" fill="#30BFF1"/>
<path d="M280.913 103.283C281.764 102.488 282.048 103.453 282.388 103.85C295.098 120.02 307.694 136.304 320.403 152.475C331.977 167.17 343.666 181.751 355.183 196.503C359.098 201.553 363.41 206.319 366.815 211.766C365.283 225.78 361.595 239.227 356.261 252.163C331.864 311.228 288.119 347.994 226.558 363.994C226.218 364.108 225.82 364.051 225.423 364.108C223.211 360.023 219.806 356.845 216.913 353.271C211.863 346.973 206.53 340.902 201.31 334.717C196.6 329.1 191.891 323.483 187.182 317.866C186.728 317.356 186.274 316.902 186.217 316.221C199.097 310.717 211.522 304.419 223.211 296.646C247.835 280.306 267.353 259.426 279.325 232.078C293.282 200.248 294.53 167.17 288.63 133.467C286.814 123.198 283.977 113.212 280.913 103.283Z" fill="#2DACD1"/>
<path d="M280.915 103.283C283.979 113.212 286.816 123.141 288.631 133.411C294.532 167.113 293.284 200.191 279.326 232.021C267.355 259.369 247.837 280.192 223.212 296.589C211.524 304.363 199.099 310.66 186.219 316.164C184.46 317.072 182.928 316.334 181.34 315.71C162.162 308.107 144.857 297.497 129.424 283.823C105.481 262.603 89.3671 236.56 82.1614 205.241C78.0195 187.255 77.1684 169.042 78.8138 150.602C80.289 134.148 83.6365 118.148 88.0621 102.318C88.6862 99.9918 89.5373 98.6868 92.2607 98.4032C96.2892 97.9493 100.091 96.4173 103.608 94.2613C109.055 91.0272 112.8 86.4314 114.445 80.3037C114.956 78.4313 115.58 77.7505 117.623 77.7505C162.503 77.8072 207.439 77.8072 252.319 77.7505C254.248 77.7505 255.099 78.3179 255.723 80.1902C259.298 90.1194 266.163 96.1336 276.773 97.4954C278.135 97.6656 278.759 98.2329 279.156 99.4244C279.78 100.729 280.404 101.978 280.915 103.283ZM186.503 90.1194C167.098 90.1194 147.751 90.1194 128.346 90.0627C126.587 90.0627 125.623 90.1761 125.509 92.3889C125.396 94.0911 122.389 91.7648 122.162 94.2045C122.162 94.3748 122.105 94.6017 122.048 94.7719C119.892 102.205 114.786 106.687 107.41 108.219C104.176 108.9 102.36 110.034 102.133 113.382C102.133 113.666 101.963 113.893 101.906 114.176C94.7005 140.276 91.0125 166.773 95.4381 193.78C104.062 245.752 134.758 279.852 182.531 299.767C184.063 300.391 185.368 300.277 186.843 299.596C195.865 295.625 204.602 291.143 212.886 285.866C241.993 267.256 262.191 241.951 271.043 208.135C275.638 190.659 276.546 172.957 274.844 154.971C273.369 139.482 270.191 124.389 265.028 109.694C264.347 107.765 263.61 106.517 261.057 106.233C252.716 105.268 248.744 101.07 247.837 92.6159C247.61 90.4598 246.872 90.0627 244.886 90.1194C225.482 90.1761 206.021 90.1194 186.503 90.1194Z" fill="#FCFDFD"/>
<path d="M186.503 90.1193C205.964 90.1193 225.482 90.1193 244.943 90.0626C246.872 90.0626 247.666 90.403 247.893 92.5591C248.801 101.013 252.773 105.212 261.113 106.176C263.667 106.46 264.404 107.708 265.085 109.637C270.248 124.332 273.482 139.368 274.901 154.914C276.603 172.843 275.638 190.603 271.099 208.078C262.248 241.837 242.049 267.142 212.943 285.809C204.659 291.142 195.921 295.568 186.9 299.54C185.425 300.221 184.12 300.334 182.588 299.71C134.814 279.795 104.062 245.695 95.4948 193.723C91.0124 166.716 94.7572 140.276 101.963 114.12C102.02 113.836 102.19 113.609 102.19 113.325C102.36 109.978 104.176 108.843 107.466 108.162C114.842 106.63 119.949 102.205 122.105 94.7151C122.162 94.5449 122.218 94.3747 122.218 94.1477C122.389 91.708 125.452 94.0343 125.566 92.3321C125.679 90.1761 126.701 90.0059 128.403 90.0059C147.751 90.1761 167.155 90.1193 186.503 90.1193ZM100.204 170.687C100.261 183.68 101.736 197.411 105.878 210.631C118.417 250.348 145.254 276.617 182.928 292.788C184.347 293.412 185.425 292.958 186.673 292.447C194.503 288.873 202.106 284.901 209.368 280.249C234.39 264.249 253.056 243.085 262.305 214.489C273.199 180.957 270.362 147.595 259.865 114.517C259.411 113.155 258.617 112.588 257.312 112.304C249.936 110.659 245.056 106.176 242.617 99.1407C241.936 97.1549 241.028 96.6442 238.985 96.6442C220.262 96.701 201.538 96.7009 182.815 96.7009C165.623 96.7009 148.375 96.7009 131.183 96.7009C129.821 96.7009 128.46 96.4173 127.779 98.3464C124.828 106.8 118.644 111.793 110.303 114.347C108.885 114.8 108.318 115.481 107.977 116.786C103.268 134.148 100.317 151.794 100.204 170.687Z" fill="#2D8FA1"/>
<path d="M100.206 170.687C100.32 151.737 103.27 134.091 107.979 116.729C108.32 115.481 108.887 114.744 110.305 114.29C118.646 111.793 124.83 106.744 127.781 98.2895C128.462 96.3604 129.823 96.6441 131.185 96.6441C148.377 96.6441 165.625 96.6441 182.817 96.6441C201.54 96.6441 220.264 96.7009 238.987 96.5874C240.973 96.5874 241.881 97.0981 242.619 99.0839C245.058 106.119 249.938 110.602 257.314 112.247C258.619 112.531 259.47 113.098 259.867 114.46C270.42 147.538 273.201 180.843 262.307 214.432C253.059 243.028 234.392 264.192 209.37 280.192C202.108 284.844 194.505 288.816 186.675 292.391C185.483 292.958 184.405 293.355 182.93 292.731C145.256 276.561 118.419 250.234 105.88 210.574C101.681 197.411 100.263 183.68 100.206 170.687ZM185.143 226.404C195.072 226.404 205.001 226.404 214.93 226.404C221.966 226.404 225.994 222.376 225.994 215.34C226.051 201.723 225.994 188.106 225.994 174.489C225.994 167.51 221.966 163.368 214.93 163.368C212.831 163.368 212.264 162.858 212.207 160.701C211.923 152.928 209.654 145.779 203.072 141.127C193.597 134.318 183.044 132.843 172.207 137.496C162.164 141.808 158.079 150.262 157.285 160.701C157.171 162.177 157.285 163.311 155.129 163.368C148.036 163.538 144.292 167.567 144.292 174.716C144.292 188.219 144.292 201.723 144.292 215.284C144.292 222.262 148.433 226.404 155.355 226.404C165.285 226.404 175.214 226.404 185.143 226.404Z" fill="#F6B542"/>
<path d="M185.143 226.404C175.214 226.404 165.285 226.404 155.356 226.404C148.434 226.404 144.292 222.262 144.292 215.283C144.235 201.78 144.292 188.276 144.292 174.716C144.292 167.623 148.037 163.595 155.129 163.368C157.342 163.311 157.171 162.177 157.285 160.701C158.079 150.262 162.164 141.751 172.207 137.496C183.044 132.843 193.597 134.318 203.072 141.127C209.597 145.836 211.924 152.928 212.207 160.701C212.264 162.857 212.831 163.368 214.931 163.368C221.966 163.368 225.938 167.453 225.995 174.489C225.995 188.106 225.995 201.723 225.995 215.34C225.995 222.432 221.966 226.404 214.931 226.404C205.002 226.404 195.072 226.404 185.143 226.404ZM184.065 163.311C189.342 163.311 194.619 163.255 199.895 163.368C201.824 163.425 202.221 162.687 202.221 160.928C201.994 151.056 194.845 143.907 184.689 143.567C175.328 143.226 168.008 149.751 166.476 159.794C165.909 163.368 165.909 163.368 169.427 163.368C174.25 163.311 179.129 163.311 184.065 163.311ZM178.391 211.539C182.59 211.539 186.505 211.482 190.477 211.539C191.952 211.539 191.838 210.858 191.611 209.723C190.647 205.184 189.909 200.645 188.888 196.163C188.491 194.517 188.604 193.496 190.136 192.361C193.994 189.468 194.221 184.078 190.987 180.616C187.696 177.212 182.59 177.212 179.413 180.673C176.179 184.134 176.462 189.468 180.321 192.418C181.739 193.496 181.909 194.461 181.569 195.993C180.491 201.099 179.469 206.149 178.391 211.539Z" fill="#FEFEFE"/>
<path d="M184.063 163.311C179.184 163.311 174.248 163.311 169.368 163.311C165.907 163.311 165.907 163.311 166.418 159.737C167.95 149.694 175.326 143.169 184.631 143.51C194.787 143.85 201.993 151.056 202.163 160.872C202.22 162.687 201.823 163.368 199.837 163.311C194.617 163.198 189.34 163.311 184.063 163.311Z" fill="#F6B542"/>
<path d="M178.39 211.539C179.468 206.149 180.433 201.099 181.511 196.049C181.851 194.517 181.624 193.553 180.263 192.475C176.404 189.524 176.121 184.191 179.355 180.73C182.532 177.326 187.695 177.269 190.929 180.673C194.22 184.078 193.937 189.468 190.078 192.418C188.546 193.553 188.49 194.574 188.83 196.219C189.851 200.702 190.646 205.298 191.554 209.78C191.78 210.858 191.894 211.595 190.419 211.595C186.504 211.539 182.589 211.539 178.39 211.539Z" fill="#F6B542"/>
</svg>
