<svg width="189" height="39" viewBox="0 0 189 39" fill="none" xmlns="http://www.w3.org/2000/svg">
<path d="M1.83 17.38L1.47 13.87H5.79L6.15 17.38V22.06L6.12 23.95L1.83 24.7V17.38ZM8.96367 13.87H13.3137L14.7837 27.46C16.8637 27.26 18.3437 26.65 19.2237 25.63C20.1037 24.59 20.5237 23.12 20.4837 21.22V20.29C20.4837 19.39 20.2337 18.63 19.7337 18.01C19.2537 17.37 18.5237 17.02 17.5437 16.96L16.0737 16.87L16.4037 13.54L18.2337 13.63C20.0937 13.73 21.6137 14.31 22.7937 15.37C23.9937 16.41 24.6237 17.9 24.6837 19.84L24.7137 20.68C24.8337 24.2 23.6937 26.81 21.2937 28.51C18.9137 30.19 15.4737 31.12 10.9737 31.3L8.96367 13.87ZM32.8683 31L32.3283 27.79C31.7683 28.69 31.1083 29.45 30.3483 30.07C29.6083 30.69 28.6883 31.19 27.5883 31.57L25.9983 28.15C28.7983 27.27 30.6983 25.87 31.6983 23.95V19.06C31.6983 18.34 31.5883 17.83 31.3683 17.53C31.1483 17.23 30.7783 17.04 30.2583 16.96L28.3683 16.69L28.9083 13.51L32.4483 13.99C33.6683 14.15 34.5683 14.61 35.1483 15.37C35.7283 16.11 36.0183 17.18 36.0183 18.58V24.28L36.9783 31H32.8683ZM46.9031 19.3C46.9031 17.84 46.2331 17.11 44.8931 17.11H39.0431V13.87H46.0631C47.6631 13.87 48.9231 14.33 49.8431 15.25C50.7831 16.15 51.2531 17.57 51.2531 19.51V31H46.9031V19.3ZM54.0216 27.76H58.4016V19.09C58.4016 18.37 58.2616 17.86 57.9816 17.56C57.7216 17.26 57.3116 17.07 56.7516 16.99L54.6516 16.69L55.1916 13.51L58.9416 13.99C60.1616 14.15 61.0916 14.67 61.7316 15.55C62.3916 16.43 62.7216 17.57 62.7216 18.97V31H54.0216V27.76ZM77.3273 31L71.6873 22.27L69.0173 31H64.9073L68.2373 20.71L69.1673 18.4L66.3773 13.87H70.7273L73.1273 17.77L75.2873 21.04L76.0973 18.31L77.2973 13.87H81.4073L77.8073 24.79L81.9473 31H77.3273ZM96.1788 31L95.6388 27.79C95.0788 28.69 94.4188 29.45 93.6588 30.07C92.9188 30.69 91.9988 31.19 90.8988 31.57L89.3088 28.15C92.1088 27.27 94.0088 25.87 95.0088 23.95V19.06C95.0088 18.34 94.8988 17.83 94.6788 17.53C94.4588 17.23 94.0888 17.04 93.5688 16.96L91.6788 16.69L92.2188 13.51L95.7588 13.99C96.9788 14.15 97.8788 14.61 98.4588 15.37C99.0388 16.11 99.3288 17.18 99.3288 18.58V24.28L100.289 31H96.1788ZM103.344 17.38L102.984 13.87H107.304L107.664 17.38V31H103.344V17.38ZM117.977 19.3C117.977 17.84 117.307 17.11 115.967 17.11H110.117V13.87H117.137C118.737 13.87 119.997 14.33 120.917 15.25C121.857 16.15 122.327 17.57 122.327 19.51V31H117.977V19.3ZM125.756 17.38L125.396 13.87H129.716L130.076 17.38V22.06L130.046 23.95L125.756 24.7V17.38ZM139.579 20.62C139.579 19.86 139.649 19.18 139.789 18.58C139.949 17.96 140.159 17.47 140.419 17.11H132.739V13.87H146.809V17.11H144.469C144.089 17.97 143.899 19.14 143.899 20.62V31H139.579V20.62Z" fill="#2872DA"/>
<path d="M164.053 18.307V31H184.088V18.307H187L174.014 5L161 18.3365L164.053 18.307Z" fill="#0659F3" stroke="#0659F3" stroke-width="3" stroke-miterlimit="10" stroke-linecap="round" stroke-linejoin="round"/>
<path d="M170 21.608L173.28 26L179 18" stroke="white" stroke-width="3" stroke-miterlimit="10" stroke-linecap="round" stroke-linejoin="round"/>
</svg>
